<?xml version="1.0" encoding="UTF-8"?>
<svg id="Calque_1" data-name="Calque 1" xmlns="http://www.w3.org/2000/svg" viewBox="0 0 814.87 205.05">
  <defs>
    <style>
      .cls-1 {
        font-family: FredokaCondensed-SemiBold, 'Fredoka Condensed';
        font-size: 145.7px;
        font-weight: 600;
      }

      .cls-1, .cls-2, .cls-3 {
        fill: #edc51a;
      }

      .cls-4 {
        fill: #4a494a;
        font-family: Montserrat-Regular, Montserrat;
        font-size: 35.49px;
      }

      .cls-5 {
        letter-spacing: 0em;
      }

      .cls-6 {
        letter-spacing: 0em;
      }

      .cls-7 {
        fill: #242424;
      }

      .cls-8 {
        letter-spacing: 0em;
      }

      .cls-9 {
        letter-spacing: -.01em;
      }

      .cls-10 {
        letter-spacing: -.01em;
      }

      .cls-3 {
        font-family: Montserrat-Bold, Montserrat;
        font-size: 57.55px;
        font-weight: 700;
      }

      .cls-11 {
        letter-spacing: 0em;
      }

      .cls-12 {
        letter-spacing: 0em;
      }

      .cls-13 {
        letter-spacing: 0em;
      }
    </style>
  </defs>
  <g>
    <path class="cls-7" d="M386.68,46.81c5.25-8.37,10.26-16.63,13.91-25.73,3.83-9.53.95-19.93-3.94-21.03-1.11-.25-3.92.6-4.69,1.5l-9.98,11.68c-12.18,17.22-23.05,34.73-33.91,53.43-8.19-7.94-20.6-6.62-31.55-2.27-12.65,5.03-21.99,13.83-31.08,23.44-3.97,4.19-10.36,5.97-15.84,7.66l.39-13.13c.27-8.96-7.55-17.7-16.43-19.58-8.92-1.88-17.29,1.52-25.03,5.54-9.22,4.79-15.21,12.71-21.63,20.69-3.39,4.22-9.96,5.57-14.89,7.03.27-4.64.98-9,.34-13.85-1.18-8.83-8.52-17.52-17.48-19.21-8.82-1.67-17.34,1.93-24.74,6.44-17.08,10.41-33.55,36.84-29.73,55.93,2.9,14.5,16.1,22.22,30.13,18.98,19.3-4.46,31.73-21.73,38.98-39.36l9.77-1.94c-2.25,6.96-4.18,14.5-2.85,21.66,2.8,15.11,16.86,23.52,31.77,18.91,19.85-6.13,30.16-21.02,38.33-38.95l10.73-2.66c-4.17,6.66-6.6,13.74-6.66,21.51-.09,9.93,6.19,18.28,15.77,20.62,14.27,1.09,28.27-10.63,38.78-20.73.24,8.29,4.85,16.3,12.74,18.8,15.89,5.05,36.71-8.65,46.89-22.82,2.75-3.83,4.12-9.82,1.45-13.78-1.96-2.91-5.62-.68-7.17,1.43-5.58,7.59-11.47,14.27-18.7,20.24-5.07,4.19-12.45,6.13-14.9,2.9-5.86-7.69,16.87-44.55,24.6-56.86l16.64-26.5ZM141.87,134.37c-3.56-2.58-4.56-5.96-4.5-9.99,1.08-7.56,3.85-14.45,7.68-21.07,3.94-6.56,8.38-12.31,14.2-17.95.61,8.46,5.67,14.87,14.07,18.41-6.05,12.53-17.61,32.52-31.45,30.6ZM176.1,95.54c-1.86-1.01-3.64-2.3-4.52-3.89-4.5-8.14.87-18.13,4.82-17.71,3.25.35,2.67,13.42-.31,21.6ZM236.58,124.31c-3.74,3.66-7.27,6.5-12.04,9.39-2.92.36-5.77.51-7.8-.62-5.15-2.87-3.73-13.94.39-21.47,4.73-10.12,10.78-18.94,19.7-26.66.58,8.39,5.25,14.69,13.3,18.32-3.58,7.48-8.2,14.47-13.55,21.04ZM256.8,79.55l-3.6,15.31c-3.54-1.35-5.62-4.15-5.99-7.71-.58-5.58,1.37-11.9,6.92-14.14,1.57.91,3.13,4.55,2.66,6.55ZM339.31,82.17l-16.88,26.18c-4.09,6.35-9.16,11.75-14.53,16.95-3.53,3.41-7.81,6.14-12.62,7-5.27.94-5.8-8.34-.87-18.8,7.44-15.78,21.83-35.12,37.84-41.69,2.22-.91,6.62-1.08,7.92.94,1.72,2.68.76,6.89-.87,9.41Z"/>
    <path class="cls-7" d="M120.13,83.96c-13.77.45-26.11,1.77-39.21,3.22-9.25,1.03-25.57,3.07-26.04,8.75-.14,1.65,1.07,4.12,2.3,5.92,3.71,2.29,8.29,3.49,12.98,2.82l24.48-3.55c-10.55,19.7-27.16,35.68-49.31,38.01-10.04,1.06-18.53-5-20.78-14.84-3.92-17.08,5.35-36.24,15.25-51.04,13.88-20.75,31.81-38.05,53.15-50.96,9.18-5.56,26.13-12.72,30.35-6.78,7.03,9.89-27.36,41.56-12.33,50.18,9.71,5.57,25.15-17.92,28.86-34.71,1.63-7.38.03-14.36-4.41-20.13-10.66-13.83-34.25-8.71-50.39-1.38C52.46,24.25,20.84,53.16,6.18,86.09,1.98,95.52-.13,104.87,0,115.33c.22,16.6,11.05,30.99,27.26,35.22,22.36,5.84,45.35-.46,62.42-15.69,15.06-13.45,24.97-31.6,30.44-50.9Z"/>
    <path class="cls-2" d="M109.41,175.46c-11.18-3.84-20.75-8.85-31.23-13.96,11.42,10.85,23.63,18.01,37.56,24.53,55.11,25.82,114.96,24.79,169.93.26,15.32-6.84,29.83-14.31,42.48-25.78-25.9,11.27-51.22,20.1-78.57,25.22-47.2,8.84-94.84,5.32-140.17-10.27Z"/>
  </g>
  <text class="cls-1" transform="translate(401.64 142.05)"><tspan x="0" y="0">TAXI</tspan></text>
  <text class="cls-4" transform="translate(343.97 190.1)"><tspan class="cls-12" x="0" y="0">L</tspan><tspan class="cls-5" x="20.62" y="0">e plaisir de </tspan><tspan class="cls-9" x="220.68" y="0">v</tspan><tspan class="cls-8" x="239.39" y="0">ous </tspan><tspan class="cls-11" x="312.18" y="0">c</tspan><tspan class="cls-8" x="331.84" y="0">o</tspan><tspan class="cls-6" x="354.1" y="0">n</tspan><tspan x="378.19" y="0">dui</tspan><tspan class="cls-10" x="435.69" y="0">r</tspan><tspan x="449.46" y="0">e</tspan></text>
  <path class="cls-7" d="M715.21,41.39h72.19c12.86,0,23.3,10.44,23.3,23.3v65.01h-121.02v-62.78c0-14.09,11.44-25.53,25.53-25.53Z"/>
  <text class="cls-3" transform="translate(693.54 106.53)"><tspan x="0" y="0"> </tspan><tspan class="cls-13" x="16.28" y="0">4</tspan><tspan x="55.82" y="0">5</tspan></text>
  <rect class="cls-2" x="689.68" y="129.71" width="121.09" height="13.08"/>
</svg>